<?xml version="1.0" standalone="no"?>
<!DOCTYPE svg PUBLIC "-//W3C//DTD SVG 20010904//EN"
 "http://www.w3.org/TR/2001/REC-SVG-20010904/DTD/svg10.dtd">
<svg version="1.0" xmlns="http://www.w3.org/2000/svg"
 width="850.000000pt" height="530.000000pt" viewBox="0 0 850.000000 530.000000"
 preserveAspectRatio="xMidYMid meet">

<g transform="translate(0.000000,530.000000) scale(0.100000,-0.100000)"
fill="#000000" stroke="none">
<path d="M1970 4795 c0 -3 73 -103 163 -222 789 -1052 1597 -2136 1597 -2144
0 -5 -136 -157 -302 -336 -167 -180 -418 -451 -558 -603 -140 -152 -390 -421
-555 -599 -165 -178 -313 -339 -328 -357 l-28 -34 198 0 199 0 410 442 c225
244 548 594 719 778 380 411 432 466 438 460 3 -3 286 -382 631 -842 l626
-838 680 0 c374 0 680 2 680 5 0 5 -326 443 -1479 1983 -207 276 -377 506
-379 511 -3 9 432 482 1303 1419 165 178 311 337 324 353 l24 29 -199 0 -199
0 -719 -776 c-592 -639 -721 -773 -731 -762 -13 13 -750 997 -1015 1355 l-135
182 -682 1 c-376 0 -683 -2 -683 -5z m1546 -737 c661 -883 1894 -2531 2152
-2878 146 -195 269 -361 275 -367 7 -10 -55 -13 -304 -13 l-314 0 -140 188
c-77 103 -454 608 -839 1122 -385 514 -817 1093 -961 1285 -448 600 -807 1079
-817 1093 -8 9 54 12 303 12 l314 0 331 -442z"/>
</g>
</svg>
